<svg width="62" height="62" viewBox="0 0 62 62" fill="none" xmlns="http://www.w3.org/2000/svg">
<path fill-rule="evenodd" clip-rule="evenodd" d="M39.8039 0.000571946C45.5601 0.0376032 50.9648 2.21495 55.0223 6.13182C59.0948 10.0637 61.3706 15.3203 61.4296 20.9335C61.5065 28.2099 57.801 34.9257 51.5179 38.897C48.9787 40.502 47.6779 43.4218 48.2821 46.1626C48.5006 47.1549 48.5953 48.1773 48.5634 49.201C48.4649 52.3482 47.1618 55.3332 44.894 57.6062C42.6389 59.867 39.6295 61.2198 36.4209 61.4153C36.1495 61.4321 35.8781 61.4401 35.6076 61.4401C32.1614 61.4401 28.8431 60.107 26.3981 57.7159C23.744 55.1199 22.6443 51.2921 23.2176 46.6454C24.2803 38.0359 23.3043 31.7246 19.8496 24.8612C18.2123 21.6076 17.834 18.2692 18.7556 15.2068C20.0592 10.8765 22.829 6.98776 26.5551 4.25682C30.3965 1.44151 34.9729 -0.0294281 39.8039 0.000571946ZM45.4218 40.6412C46.2937 38.6837 47.7365 37.0281 49.5942 35.8539C54.8146 32.5543 57.8934 26.9907 57.8301 20.9715C57.7813 16.3295 55.896 11.979 52.522 8.72167C49.1329 5.45026 44.6081 3.63151 39.7809 3.60057C35.7346 3.58042 31.8965 4.80573 28.6832 7.16073C25.5839 9.43182 23.2823 12.6582 22.2032 16.2446C21.3806 18.9779 22.2178 21.5589 23.0653 23.2426C27.7842 32.6171 27.5967 40.5568 26.7909 47.0865C26.354 50.626 27.0689 53.3364 28.9153 55.142C30.8264 57.0109 33.4809 57.9873 36.202 57.8218C38.5307 57.6803 40.7128 56.7006 42.3454 55.0637C43.9649 53.4404 44.8954 51.3184 44.9648 49.0885C44.9878 48.3629 44.9207 47.6387 44.7665 46.9374C44.301 44.8253 44.5279 42.6484 45.4218 40.6412ZM39.6567 8.52479C32.5017 8.52479 26.6803 14.1906 26.6803 21.1548V21.1759C26.6803 21.7431 26.9479 22.2774 27.4021 22.6173C27.8564 22.9571 28.4442 23.0626 28.9884 22.9028C30.036 22.5948 31.2346 22.7035 32.1951 23.1939C33.6257 23.9251 34.5201 25.4514 34.4203 26.9917C34.3209 28.5156 33.2535 29.919 31.7639 30.4834C30.8343 30.8359 30.3665 31.8751 30.7185 32.8046C30.9914 33.5242 31.6757 33.9671 32.4023 33.9671C32.6142 33.9671 32.8298 33.9292 33.0398 33.8499C35.8251 32.7943 37.8234 30.1323 38.0123 27.2251C38.2045 24.2715 36.5245 21.3634 33.8324 19.9881C32.8078 19.4645 31.6682 19.1771 30.517 19.134C31.4723 15.1248 35.2078 12.1248 39.6567 12.1248C44.827 12.1248 49.0331 16.1757 49.0331 21.1548C49.0331 22.149 49.8393 22.9548 50.8331 22.9548C51.8273 22.9548 52.6335 22.149 52.6335 21.1548C52.6335 14.1906 46.8121 8.52479 39.6567 8.52479ZM11.1299 24.9789C11.8214 24.2649 12.9614 24.2471 13.6748 24.9385C17.1562 28.3117 19.0734 32.8074 19.0734 37.5976C19.0734 42.3878 17.1562 46.8835 13.6753 50.2567C13.3256 50.5956 12.8737 50.7643 12.4228 50.7643C11.9526 50.7643 11.4829 50.581 11.1299 50.2168C10.4381 49.5029 10.4559 48.3634 11.1698 47.6715C13.9453 44.9823 15.4734 41.4048 15.4734 37.5976C15.4734 33.7909 13.9453 30.2134 11.1698 27.5242C10.4559 26.8323 10.4381 25.6928 11.1299 24.9789ZM0.531039 33.7993C-0.173961 34.4996 -0.177711 35.6396 0.523071 36.3446C1.09401 36.9193 1.09401 37.8545 0.523071 38.4292C-0.177711 39.1342 -0.173961 40.2737 0.531039 40.9745C0.882133 41.3237 1.34104 41.4976 1.79995 41.4976C2.2626 41.4976 2.72526 41.3204 3.07682 40.9665C5.03807 38.9926 5.03807 35.7812 3.07682 33.8073C2.37604 33.1023 1.23651 33.0985 0.531039 33.7993ZM5.86916 30.0765C6.56057 29.3626 7.7001 29.3443 8.41448 30.0362C10.4953 32.0528 11.6414 34.7382 11.6414 37.5976C11.6414 40.4574 10.4953 43.1429 8.41448 45.1595C8.06479 45.4979 7.61291 45.6667 7.16198 45.6667C6.69135 45.6667 6.22213 45.4834 5.86916 45.1192C5.17729 44.4053 5.1951 43.2657 5.90901 42.5739C7.28432 41.2417 8.04135 39.4745 8.04135 37.5976C8.04135 35.7212 7.28432 33.954 5.90901 32.6218C5.1951 31.9299 5.17729 30.7904 5.86916 30.0765Z" fill="#FF6565"/>
</svg>
