<svg width="95" height="66" viewBox="0 0 95 66" fill="none" xmlns="http://www.w3.org/2000/svg">
<path fill-rule="evenodd" clip-rule="evenodd" d="M40.9092 2.12124C40.9092 0.96144 41.8494 0.0212402 43.0092 0.0212402C44.169 0.0212402 45.1092 0.96144 45.1092 2.12124V63.2783C45.1092 64.4381 44.169 65.3783 43.0092 65.3783C41.8494 65.3783 40.9092 64.4381 40.9092 63.2783V2.12124ZM34.8276 14.5763C33.6678 14.5763 32.7276 15.5165 32.7276 16.6763V48.7235C32.7276 49.8833 33.6678 50.8235 34.8276 50.8235C35.9874 50.8235 36.9276 49.8833 36.9276 48.7235V16.6763C36.9276 15.5165 35.9874 14.5763 34.8276 14.5763ZM24.5454 22.8188C24.5454 21.659 25.4856 20.7188 26.6454 20.7188C27.8055 20.7188 28.7454 21.6587 28.7454 22.8188V42.5813C28.7454 43.7411 27.8052 44.6813 26.6454 44.6813C25.4856 44.6813 24.5454 43.7411 24.5454 42.5813V22.8188ZM18.4638 24.1904C17.304 24.1904 16.3638 25.1306 16.3638 26.2904V39.1094C16.3638 40.2692 17.304 41.2094 18.4638 41.2094C19.6236 41.2094 20.5638 40.2692 20.5638 39.1094V26.2904C20.5638 25.1306 19.6236 24.1904 18.4638 24.1904ZM0 29.2283C0 28.0685 0.9402 27.1283 2.1 27.1283C3.2598 27.1283 4.2 28.0682 4.2 29.2283V36.1718C4.2 37.3316 3.2598 38.2718 2.1 38.2718C0.9402 38.2718 0 37.3316 0 36.1718V29.2283ZM8.1819 29.2283C8.1819 28.0685 9.1221 27.1283 10.2819 27.1283C11.442 27.1283 12.3819 28.0682 12.3819 29.2283V36.1718C12.3819 37.3316 11.4417 38.2718 10.2819 38.2718C9.1221 38.2718 8.1819 37.3316 8.1819 36.1718V29.2283ZM51.1911 5.22894C50.0313 5.22894 49.0911 6.16914 49.0911 7.32894V58.0709C49.0911 59.2307 50.0313 60.1709 51.1911 60.1709C52.3509 60.1709 53.2911 59.2307 53.2911 58.0709V7.32894C53.2911 6.16884 52.3509 5.22894 51.1911 5.22894ZM57.2727 17.7443C57.2727 16.5845 58.2129 15.6443 59.3727 15.6443C60.5325 15.6443 61.4727 16.5845 61.4727 17.7443V47.6552C61.4727 48.815 60.5325 49.7552 59.3727 49.7552C58.2129 49.7552 57.2727 48.815 57.2727 47.6552V17.7443ZM67.5549 21.92C66.3951 21.92 65.4549 22.8602 65.4549 24.02V41.3792C65.4549 42.539 66.3951 43.4792 67.5549 43.4792C68.7147 43.4792 69.6549 42.539 69.6549 41.3792V24.02C69.6549 22.8602 68.7147 21.92 67.5549 21.92ZM73.6368 26.6912C73.6368 25.5314 74.577 24.5912 75.7368 24.5912C76.8966 24.5912 77.8368 25.5314 77.8368 26.6912V38.7089C77.8368 39.8687 76.8966 40.8089 75.7368 40.8089C74.577 40.8089 73.6368 39.8687 73.6368 38.7089V26.6912ZM83.9184 27.1283C82.7586 27.1283 81.8184 28.0685 81.8184 29.2283V36.1718C81.8184 37.3316 82.7586 38.2718 83.9184 38.2718C85.0782 38.2718 86.0184 37.3316 86.0184 36.1718V29.2283C86.0184 28.0682 85.0782 27.1283 83.9184 27.1283ZM90 29.2283C90 28.0685 90.9402 27.1283 92.1 27.1283C93.2598 27.1283 94.2 28.0682 94.2 29.2283V36.1718C94.2 37.3316 93.2598 38.2718 92.1 38.2718C90.9402 38.2718 90 37.3316 90 36.1718V29.2283Z" fill="#FF6565"/>
</svg>
